<svg width="38" height="40" viewBox="0 0 38 40" fill="none" xmlns="http://www.w3.org/2000/svg">
<path d="M0 40V10.5263H12.6667V6.31579L19 0L25.3333 6.31579V18.9474H38V40H0ZM4.22222 35.7895H8.44444V31.5789H4.22222V35.7895ZM4.22222 27.3684H8.44444V23.1579H4.22222V27.3684ZM4.22222 18.9474H8.44444V14.7368H4.22222V18.9474ZM16.8889 35.7895H21.1111V31.5789H16.8889V35.7895ZM16.8889 27.3684H21.1111V23.1579H16.8889V27.3684ZM16.8889 18.9474H21.1111V14.7368H16.8889V18.9474ZM16.8889 10.5263H21.1111V6.31579H16.8889V10.5263ZM29.5556 35.7895H33.7778V31.5789H29.5556V35.7895ZM29.5556 27.3684H33.7778V23.1579H29.5556V27.3684Z" fill="white"/>
</svg>
