<svg width="42" height="56" viewBox="0 0 42 56" fill="none" xmlns="http://www.w3.org/2000/svg">
<path d="M12.25 21.0233L12.2675 20.9977M19.25 21.0233L19.2675 20.9977M12.25 30.3567L12.2675 30.331M19.25 30.3567L19.2675 30.331M12.25 39.69L12.2675 39.6643M19.25 39.69L19.2675 39.6643M26.25 49H6.3C6.02152 49 5.75445 48.8525 5.55754 48.5899C5.36062 48.3274 5.25 47.9713 5.25 47.6V13.0667C5.25 12.6954 5.36062 12.3393 5.55754 12.0767C5.75445 11.8142 6.02152 11.6667 6.3 11.6667H15.75V8.4C15.75 8.0287 15.8606 7.6726 16.0575 7.41005C16.2545 7.1475 16.5215 7 16.8 7H25.2C25.4785 7 25.7455 7.1475 25.9425 7.41005C26.1394 7.6726 26.25 8.0287 26.25 8.4V21M26.25 49H35.7C35.9785 49 36.2455 48.8525 36.4425 48.5899C36.6394 48.3274 36.75 47.9713 36.75 47.6V22.4C36.75 22.0287 36.6394 21.6726 36.4425 21.41C36.2455 21.1475 35.9785 21 35.7 21H26.25M26.25 49V39.6667M26.25 21V30.3333M26.25 39.6667V30.3333M26.25 39.6667H29.75M26.25 30.3333H29.75" stroke="white" stroke-width="2.66667" stroke-linecap="round" stroke-linejoin="round"/>
</svg>
