<svg width="48" height="48" viewBox="0 0 48 48" fill="none" xmlns="http://www.w3.org/2000/svg">
<path d="M20 18.02L20.02 17.998M28 18.02L28.02 17.998M20 26.02L20.02 25.998M28 26.02L28.02 25.998M20 34.02L20.02 33.998M28 34.02L28.02 33.998M12 40.8V11.2C12 10.8817 12.1264 10.5765 12.3515 10.3515C12.5765 10.1264 12.8817 10 13.2 10H24V7.2C24 6.88174 24.1264 6.57652 24.3515 6.35147C24.5765 6.12643 24.8817 6 25.2 6H34.8C35.1183 6 35.4235 6.12643 35.6485 6.35147C35.8736 6.57652 36 6.88174 36 7.2V40.8C36 41.1183 35.8736 41.4235 35.6485 41.6485C35.4235 41.8736 35.1183 42 34.8 42H13.2C12.8817 42 12.5765 41.8736 12.3515 41.6485C12.1264 41.4235 12 41.1183 12 40.8Z" stroke="white" stroke-width="2.66667" stroke-linecap="round" stroke-linejoin="round"/>
</svg>
